<svg width="286" height="26" viewBox="0 0 286 26" fill="none" xmlns="http://www.w3.org/2000/svg">
<g clip-path="url(#clip0_457_1070)">
<path d="M140.061 20.8363V20.4478H140.312C140.449 20.4478 140.637 20.4579 140.637 20.624C140.637 20.8045 140.541 20.8363 140.378 20.8363H140.061ZM140.061 21.1093H140.229L140.619 21.7896H141.047L140.616 21.0819C140.839 21.066 141.022 20.9605 141.022 20.6615C141.022 20.2918 140.765 20.1719 140.33 20.1719H139.7V21.7882H140.062V21.1079L140.061 21.1093ZM141.894 20.9808C141.894 20.0318 141.15 19.48 140.322 19.48C139.495 19.48 138.747 20.0303 138.747 20.9808C138.747 21.9312 139.489 22.483 140.322 22.483C141.156 22.483 141.894 21.9298 141.894 20.9808ZM141.44 20.9808C141.44 21.6726 140.928 22.1363 140.322 22.1363V22.132C139.7 22.1363 139.198 21.6726 139.198 20.9808C139.198 20.2889 139.701 19.8266 140.322 19.8266C140.944 19.8266 141.44 20.2889 141.44 20.9808Z" fill="black"/>
<path d="M84.2105 4.92277V21.9614H89.0583V4.92277H84.2105ZM46.083 4.89966V21.9614H50.973V8.71733L54.7877 8.73033C56.0419 8.73033 56.9105 9.02933 57.5143 9.66921C58.281 10.481 58.5938 11.7882 58.5938 14.1802V21.9614H63.331V12.535C63.331 5.80677 59.0114 4.89966 54.7863 4.89966H46.083ZM92.0147 4.92277V21.96H99.8756C104.064 21.96 105.431 21.2681 106.91 19.7182C107.955 18.6291 108.63 16.24 108.63 13.6284C108.63 11.2335 108.058 9.09721 107.062 7.76688C105.266 5.38788 102.679 4.92277 98.8165 4.92277H92.0147ZM96.8218 8.6321H98.9052C101.929 8.6321 103.884 9.97977 103.884 13.4768C103.884 16.9738 101.929 18.3229 98.9052 18.3229H96.8218V8.6321ZM77.2226 4.92277L73.1779 18.4254L69.302 4.92277H64.0701L69.6061 21.96H76.5911L82.1708 4.92277H77.224H77.2226ZM110.885 21.96H115.733V4.92277H110.884L110.885 21.96ZM124.473 4.92855L117.704 21.9542H122.484L123.555 18.9454H131.564L132.578 21.9542H137.766L130.947 4.9271H124.473V4.92855ZM127.618 8.03555L130.554 16.0118H124.589L127.618 8.03555Z" fill="black"/>
<path d="M14.8243 7.76243V5.41809C15.0541 5.4022 15.2855 5.3892 15.5212 5.38198C21.981 5.17976 26.2192 10.8925 26.2192 10.8925C26.2192 10.8925 21.642 17.2048 16.7346 17.2048C16.0275 17.2048 15.3946 17.0921 14.8243 16.9014V9.79042C17.3398 10.0923 17.8447 11.1944 19.3563 13.6962L22.7186 10.881C22.7186 10.881 20.2642 7.68442 16.1264 7.68442C15.6768 7.68442 15.2462 7.7162 14.8228 7.76098L14.8243 7.76243ZM14.8228 0.0158691V3.51865C15.0541 3.49987 15.2869 3.48543 15.5197 3.47676C24.5024 3.17631 30.3555 10.7914 30.3555 10.7914C30.3555 10.7914 23.6338 18.9063 16.6298 18.9063C15.9882 18.9063 15.3873 18.8471 14.8228 18.7489V20.9141C15.3058 20.9748 15.8063 21.0109 16.3272 21.0109C22.8438 21.0109 27.5577 17.7074 32.1218 13.7959C32.8783 14.3968 35.9759 15.86 36.6131 16.5013C32.2731 20.1081 22.1614 23.0143 16.4276 23.0143C15.8747 23.0143 15.3437 22.9811 14.8228 22.932V25.974H39.5928V0.0173139H14.8243L14.8228 0.0158691ZM14.8228 16.9V18.7489C8.79505 17.6814 7.12189 11.4616 7.12189 11.4616C7.12189 11.4616 10.0158 8.27809 14.8228 7.76243V9.79042C14.8228 9.79042 14.817 9.79042 14.8141 9.79042C12.2913 9.48998 10.3213 11.83 10.3213 11.83C10.3213 11.83 11.4256 15.769 14.8243 16.9029L14.8228 16.9ZM4.11894 11.1944C4.11894 11.1944 7.69076 5.9612 14.8243 5.41954V3.52154C6.92402 4.15131 0.081543 10.7943 0.081543 10.7943C0.081543 10.7943 3.95599 21.9165 14.8243 22.9349V20.917C6.84837 19.9203 4.11894 11.1944 4.11894 11.1944Z" fill="#76B900"/>
<path d="M147 22.0615V5.13843H153.75C155.46 5.13843 156.895 5.46883 158.056 6.12964C159.234 6.79045 160.121 7.71718 160.718 8.90986C161.331 10.1025 161.637 11.5047 161.637 13.1164V14.0593C161.637 16.5413 160.96 18.4996 159.605 19.934C158.25 21.3523 156.298 22.0615 153.75 22.0615H147ZM150.532 19.0153H153.653C155.089 19.0153 156.185 18.6205 156.944 17.8307C157.718 17.0249 158.105 15.7919 158.105 14.1318V13.0439C158.105 11.4483 157.718 10.2395 156.944 9.41755C156.185 8.59557 155.089 8.18458 153.653 8.18458H150.532V19.0153Z" fill="black"/>
<path d="M164.909 22.0615V5.13843H176.159V8.13623H168.441V12.0285H174.707L174.296 15.0263H168.441V19.0637H176.304V22.0615H164.909Z" fill="black"/>
<path d="M184.082 22.0615L177.792 5.13843H181.615L185.776 17.6131L189.937 5.13843H193.566L187.252 22.0615H184.082Z" fill="black"/>
<path d="M195.859 22.0615V5.13843H207.109V8.13623H199.392V12.0285H205.658L205.246 15.0263H199.392V19.0637H207.255V22.0615H195.859Z" fill="black"/>
<path d="M210.461 22.0615V5.13843H213.993V19.0153H221.372V22.0615H210.461Z" fill="black"/>
<path d="M231.323 22.4C229.678 22.4 228.267 22.0616 227.09 21.3847C225.928 20.7077 225.033 19.7488 224.404 18.5077C223.791 17.2667 223.485 15.792 223.485 14.0836V13.1165C223.485 11.4081 223.791 9.93338 224.404 8.69236C225.033 7.45133 225.928 6.49236 227.09 5.81543C228.267 5.13851 229.678 4.80005 231.323 4.80005H231.565C233.21 4.80005 234.614 5.13851 235.775 5.81543C236.952 6.49236 237.848 7.45133 238.46 8.69236C239.089 9.93338 239.404 11.4081 239.404 13.1165V14.0836C239.404 15.792 239.089 17.2667 238.46 18.5077C237.848 19.7488 236.952 20.7077 235.775 21.3847C234.614 22.0616 233.21 22.4 231.565 22.4H231.323ZM231.348 19.3055H231.541C232.864 19.3055 233.912 18.8784 234.686 18.0242C235.477 17.17 235.872 15.8806 235.872 14.1561V13.044C235.872 11.3195 235.477 10.0301 234.686 9.17587C233.912 8.32166 232.864 7.89455 231.541 7.89455H231.348C230.025 7.89455 228.969 8.32166 228.178 9.17587C227.404 10.0301 227.017 11.3195 227.017 13.044V14.1561C227.017 15.8806 227.404 17.17 228.178 18.0242C228.969 18.8784 230.025 19.3055 231.348 19.3055Z" fill="black"/>
<path d="M242.663 22.0615V5.13843H249.075C250.381 5.13843 251.51 5.36407 252.462 5.81535C253.429 6.25052 254.171 6.87909 254.687 7.70107C255.22 8.50693 255.486 9.48202 255.486 10.6263V11.0857C255.486 12.8424 254.905 14.2043 253.744 15.1714C252.583 16.1223 251.026 16.5978 249.075 16.5978H246.196V22.0615H242.663ZM246.196 13.5516H248.978C249.817 13.5516 250.518 13.3662 251.083 12.9956C251.663 12.6249 251.954 12.0124 251.954 11.1582V10.5538C251.954 9.73184 251.663 9.1355 251.083 8.7648C250.518 8.37799 249.817 8.18458 248.978 8.18458H246.196V13.5516Z" fill="black"/>
<path d="M258.044 22.0615V5.13843H269.294V8.13623H261.576V12.0285H267.842L267.431 15.0263H261.576V19.0637H269.439V22.0615H258.044Z" fill="black"/>
<path d="M272.645 22.0615V5.13843H279.056C281.024 5.13843 282.581 5.59777 283.726 6.51645C284.887 7.43513 285.468 8.70839 285.468 10.3362V10.7956C285.468 11.9399 285.185 12.9069 284.621 13.6967C284.073 14.4864 283.298 15.0827 282.298 15.4857L286 22.0615H282.153L278.815 16.0175H276.177V22.0615H272.645ZM276.177 12.9714H278.96C279.815 12.9714 280.524 12.8102 281.089 12.4879C281.653 12.1655 281.936 11.6256 281.936 10.8681V10.2637C281.936 9.53843 281.653 9.01462 281.089 8.69228C280.524 8.35382 279.815 8.18458 278.96 8.18458H276.177V12.9714Z" fill="black"/>
</g>
<defs>
<clipPath id="clip0_457_1070">
<rect width="286" height="26" fill="white"/>
</clipPath>
</defs>
</svg>
